<?xml version="1.0" encoding="UTF-8" standalone="no"?>
<!-- Created with Inkscape (http://www.inkscape.org/) -->

<svg
   version="1.1"
   width="210mm"
   height="297mm"
   id="svg2"
   xml:space="preserve"
   inkscape:version="1.1 (c4e8f9e, 2021-05-24)"
   sodipodi:docname="openEPCIS_Logo_draft.svg"
   viewBox="0 0 60 100"
   xmlns:inkscape="http://www.inkscape.org/namespaces/inkscape"
   xmlns:sodipodi="http://sodipodi.sourceforge.net/DTD/sodipodi-0.dtd"
   xmlns:xlink="http://www.w3.org/1999/xlink"
   xmlns="http://www.w3.org/2000/svg"
   xmlns:svg="http://www.w3.org/2000/svg"
   xmlns:rdf="http://www.w3.org/1999/02/22-rdf-syntax-ns#"
   xmlns:cc="http://creativecommons.org/ns#"
   xmlns:dc="http://purl.org/dc/elements/1.1/"><sodipodi:namedview
     pagecolor="#ffffff"
     bordercolor="#666666"
     borderopacity="1"
     objecttolerance="10"
     gridtolerance="10"
     guidetolerance="10"
     inkscape:pageopacity="0"
     inkscape:pageshadow="2"
     inkscape:window-width="2120"
     inkscape:window-height="1113"
     id="namedview13"
     showgrid="false"
     inkscape:zoom="0.84951741"
     inkscape:cx="127.131"
     inkscape:cy="323.12463"
     inkscape:window-x="1555"
     inkscape:window-y="83"
     inkscape:window-maximized="0"
     inkscape:current-layer="layer2"
     fit-margin-top="0"
     fit-margin-left="0"
     fit-margin-right="0"
     fit-margin-bottom="0"
     units="mm"
     inkscape:document-units="px"
     inkscape:pagecheckerboard="0" /><metadata
     id="metadata8"><rdf:RDF><cc:Work
         rdf:about=""><dc:format>image/svg+xml</dc:format><dc:type
           rdf:resource="http://purl.org/dc/dcmitype/StillImage" /></cc:Work></rdf:RDF></metadata><defs
     id="defs6"><linearGradient
       id="linearGradient3114"><stop
         id="stop3116"
         offset="0"
         style="stop-color:#3c6ee6;stop-opacity:1;" /><stop
         style="stop-color:#2b6aa6;stop-opacity:1;"
         offset="0.61536932"
         id="stop3118" /><stop
         style="stop-color:#0b4a86;stop-opacity:1;"
         offset="0.7922883"
         id="stop3120" /><stop
         id="stop3122"
         offset="1"
         style="stop-color:#064580;stop-opacity:1;" /></linearGradient><clipPath
       id="clipPath18"><path
         id="path20"
         inkscape:connector-curvature="0"
         d="M 0,0 V 2.73047 H 2.73047 V 0 H 0" /></clipPath><radialGradient
       inkscape:collect="always"
       xlink:href="#linearGradient4791"
       id="radialGradient4797"
       cx="740.57935"
       cy="-852.92871"
       fx="675.52924"
       fy="-1087.2935"
       r="434.55649"
       gradientTransform="matrix(1.7360202,-0.37809964,0.28591454,1.2524098,-331.27417,486.31408)"
       gradientUnits="userSpaceOnUse" /><filter
       inkscape:collect="always"
       id="filter3979"
       style="color-interpolation-filters:sRGB"
       x="-0.015898918"
       y="-0.015898242"
       width="1.0317978"
       height="1.0317965"><feGaussianBlur
         inkscape:collect="always"
         stdDeviation="4.9346659"
         id="feGaussianBlur3981" /></filter><radialGradient
       inkscape:collect="always"
       xlink:href="#linearGradient3114"
       id="radialGradient4011"
       gradientUnits="userSpaceOnUse"
       gradientTransform="matrix(0.15755117,-0.04491593,0.03295755,0.1156049,-1280.3555,57.571863)"
       spreadMethod="repeat"
       cx="849.24457"
       cy="-889.59619"
       fx="812.67682"
       fy="-1102.9368"
       r="434.55649" /></defs><g
     transform="translate(1286.5947,194.25082)"
     style="display:inline"
     inkscape:label="Lenses"
     id="layer2"
     inkscape:groupmode="layer"><path
       inkscape:connector-curvature="0"
       id="path3965"
       d="m 1323.0207,-1633.7307 c -174.903,18.5791 -313.894,157.5671 -332.4686,332.4688 h 291.8125 c 8.7366,-17.5843 23.0738,-31.9088 40.6561,-40.6563 z m 80,0 v 291.8437 c 17.5764,8.7404 31.8856,23.0459 40.625,40.6251 h 291.8123 c -18.5756,-174.912 -157.5234,-313.9028 -332.4373,-332.4688 z m -412.4686,412.4688 c 18.5612,174.9155 157.5566,313.89144 332.4686,332.46874 v -291.84374 c -17.5856,-8.7372 -31.9205,-23.0359 -40.6561,-40.625 z m 453.0936,0 c -8.7366,17.5871 -23.0486,31.8872 -40.625,40.625 v 291.84374 c 174.9226,-18.5642 313.8746,-157.54294 332.4373,-332.46874 z"
       style="display:inline;fill:#333333;fill-opacity:1;fill-rule:nonzero;stroke:none;filter:url(#filter3979)"
       transform="matrix(0.10482879,0,0,0.10482879,-1306.587,53.007273)" /><path
       style="fill:url(#radialGradient4011);fill-opacity:1;fill-rule:nonzero;stroke:#000000;stroke-width:0.0915312px;stroke-linecap:butt;stroke-linejoin:miter;stroke-opacity:1"
       d="m -1168.6301,-118.98855 c -18.3349,1.94763 -32.9051,16.51757 -34.8523,34.852314 h 30.5904 c 0.9158,-1.84334 2.4188,-3.34496 4.2619,-4.26195 z m 8.3863,0 v 30.593634 c 1.8425,0.91624 3.3425,2.41587 4.2587,4.25868 h 30.5903 c -1.9473,-18.335824 -16.513,-32.906064 -34.849,-34.852314 z m -43.2386,43.238613 c 1.9458,18.33618 16.5165,32.904858 34.8523,34.852298 v -30.593628 c -1.8435,-0.91591 -3.3462,-2.41482 -4.2619,-4.25867 z m 47.4973,0 c -0.9159,1.84364 -2.4162,3.3427 -4.2587,4.25867 v 30.593628 c 18.3369,-1.94606 32.9031,-16.515038 34.849,-34.852298 z"
       id="path3124"
       inkscape:connector-curvature="0"
       inkscape:export-filename="/data/text4139.png"
       inkscape:export-xdpi="15.98"
       inkscape:export-ydpi="15.98" /></g></svg>
